<svg xmlns="http://www.w3.org/2000/svg" viewBox="0 0 32 24" width="32" height="24" focusable="false" aria-hidden="false" aria-labelledby="58944d67291f811c" role="img"><g fill="none" fill-rule="evenodd"><path d="M25.397 13.98H11.12v1.437c0 .575-.375.767-.939.384l-.94-.959-1.878-1.246-.94-.958c-.563-.383-.563-.958 0-1.342l.94-.958 1.879-1.342.939-.958c.564-.384.94-.288.94.383v1.533h14.277v-5.75c0-1.15.94-2.204 2.255-2.204C29.06 2 30 2.958 30 4.3v7.571c0 1.246-.94 2.3-2.254 2.3h-2.16l-.189-.191z" fill="currentColor" fill-rule="nonzero"></path><path d="M2.21 5.243C2.21 3.405 3.475 2 5.159 2h13.684C20.526 2 22 3.405 22 5.243v13.514C22 20.487 20.526 22 18.842 22H5.158C3.474 22 2 20.486 2 18.757V5.243h.21z" stroke="currentColor" stroke-width="2.5"></path></g><title id="58944d67291f811c">Inserir</title></svg>