<svg  xmlns="http://www.w3.org/2000/svg" viewBox="0 0 24 24" width="24px" height="24px" focusable="false" aria-hidden="true" role="presentation" fill="#f1f0f4"><path d="M3 19.869C3 20.547 3.7 21 4.5 21h15c.8 0 1.5-.453 1.5-1.131v-7.016H3v7.016zm11.6-14.03v.565h-5c-.2 0-.3-.34-.3-.566v-.566c0-.452.4-.792.8-.792h4c.3 0 .6.34.6.792v.566h-.1zm4.8.565H16c.2-.226.2-.34.2-.566v-.566c0-1.357-1-2.262-2.3-2.262H10c-1-.114-2 .792-2 2.15v1.13H4.5c-.8.114-1.5.906-1.5 1.698v3.055h18V7.988c0-.905-.7-1.584-1.6-1.584z"></path></svg>